<?xml version="1.0" encoding="UTF-8"?><svg id="Livello_1" xmlns="http://www.w3.org/2000/svg" viewBox="0 0 289 354.02"><defs><style>.cls-1{fill:#2e3372;}.cls-2{fill:#ff6dc2;}.cls-3{fill:#36d0d8;}</style></defs><g><path class="cls-3" d="m156.24,353.54c-.59.96-2.06.34-1.77-.75,3.78-14.63,3.96-33.89-1.73-46.39-7.19-15.81-12.86-30.99-1.88-46.42,0,0,1.35,11.76,3.71,18.34,3.46,9.64,8.71,16.49,11.83,27.45,5.33,18.74-4.42,38.41-10.16,47.78Z"/><path class="cls-3" d="m181.46,143.75c-.47-.74-1.57-.26-1.34.6,3.66,13.32,4.46,24.4-1.06,42.98-6.86,23.06-37.47,47.73-28.2,72.65,0,0,.3-10.76,8.38-22.7,5.59-8.26,26.54-29.41,31.54-47.24,5.46-19.47-4.28-38.3-9.33-46.29Z"/><path class="cls-3" d="m150.86,259.98s-31.72-29.7,26.41-86.85c.73-.71-.14-1.89-1.04-1.41-10.33,5.54-34.58,22.33-49.36,63.16,0,0-3.13-3.13-1.52-7.3,0,0,2.51-2.8,2.51-5.64,0,0,3.23-1.57,2.18-4.98s-3.75-2.85-3.75-2.85c0,0-4.62-4.44-11.15-.76-4.03,2.28-4.55,7.83-4.55,7.83v1.32c0,.22-.06.44-.16.63l-.27.48c-.18.32-.21.7-.1,1.05l1.45,4.3c.43,1.28,1.36,2.32,2.58,2.9l1.67.79c1.01.48,1.74,1.44,1.82,2.56.39,5.61-5.36,12.21-1.1,14.73,16.73,9.87,16.08,20.78,34.36,10.06Z"/><path class="cls-3" d="m115.21,210.6s1.74-14.71-9.15-43.7c-.32-.84.85-1.44,1.33-.68,5.44,8.39,15.2,25.52,17.7,43.75,0,0-5.67-2.17-9.89.63Z"/></g><g><path class="cls-1" d="m4.02,88.01H0v-6.86h17.87c13.54,0,22.38,8.04,22.38,21.88s-8.84,22.01-22.38,22.01h-9.64c-2.97,0-4.2-1.24-4.2-4.2v-32.83Zm9.46,30.17h3.96c8.78,0,14.4-5.26,14.4-15.15s-5.75-15.02-14.4-15.02h-5.32v28.81c0,.86.5,1.36,1.36,1.36Z"/><path class="cls-1" d="m47.66,101.55c0-.93-.49-1.36-1.36-1.36h-2.47v-6.68h7.17c2.78,0,4.2,1.17,4.2,3.83v1.85c0,1.17-.12,1.98-.12,1.98h.12c1.42-4.51,5.19-8.1,10.01-8.1.68,0,1.42.12,1.42.12v7.73s-.8-.12-1.92-.12c-3.34,0-7.17,1.92-8.59,6.62-.43,1.55-.68,3.28-.68,5.13v12.49h-7.79v-23.49Z"/><path class="cls-1" d="m86.92,105.26h.99v-.25c0-4.51-1.79-6.18-5.81-6.18-1.42,0-4.2.37-4.2,2.1v1.67h-7.29v-3.34c0-5.87,8.28-6.49,11.56-6.49,10.51,0,13.6,5.5,13.6,12.55v11.75c0,.87.5,1.36,1.36,1.36h2.47v6.62h-7.05c-2.91,0-4.02-1.61-4.02-3.46,0-.8.06-1.36.06-1.36h-.12s-2.41,5.56-9.52,5.56c-5.63,0-10.76-3.52-10.76-9.83,0-9.89,13.6-10.69,18.73-10.69Zm-6.06,14.4c4.2,0,7.17-4.45,7.17-8.28v-.74h-1.36c-4.08,0-10.57.56-10.57,4.95,0,2.1,1.55,4.08,4.76,4.08Z"/><path class="cls-1" d="m116.71,92.77c7.29,0,9.71,4.45,9.71,4.45h.12v-.8c0-1.42.99-2.91,3.46-2.91h7.29v6.68h-2.41c-.8,0-1.36.43-1.36,1.24v21.7c0,10.82-8.41,14.9-16.63,14.9-3.96,0-8.16-1.11-11.19-2.72l2.41-6.18s3.89,2.1,8.72,2.1,8.9-2.04,8.9-7.73v-1.48c0-.74.06-1.67.06-1.67h-.12c-1.85,2.66-4.57,4.08-8.78,4.08-9.03,0-14.16-7.29-14.16-15.95s4.88-15.7,13.97-15.7Zm9.21,15.76c0-7.17-3.59-9.09-7.85-9.09-4.76,0-7.36,3.46-7.36,8.78s2.78,9.58,7.85,9.58c3.77,0,7.36-2.16,7.36-9.27Z"/><path class="cls-1" d="m157.82,92.77c9.64,0,17.31,6.86,17.31,16.51s-7.67,16.51-17.31,16.51-17.25-6.8-17.25-16.51,7.67-16.51,17.25-16.51Zm0,26.34c5.13,0,9.4-3.96,9.4-9.83s-4.27-9.83-9.4-9.83-9.33,4.02-9.33,9.83,4.27,9.83,9.33,9.83Z"/><path class="cls-1" d="m182.24,101.55c0-.93-.49-1.36-1.36-1.36h-2.47v-6.68h7.23c2.78,0,4.14,1.3,4.14,3.52v.93c0,.68-.12,1.36-.12,1.36h.12c1.36-2.66,4.76-6.55,11.13-6.55,6.99,0,11,3.65,11,11.99v12.3c0,.87.5,1.36,1.36,1.36h2.47v6.62h-7.48c-2.97,0-4.2-1.24-4.2-4.2v-14.47c0-3.83-.99-6.43-4.95-6.43-4.2,0-7.36,2.66-8.47,6.43-.43,1.3-.62,2.72-.62,4.2v14.47h-7.79v-23.49Z"/><path class="cls-1" d="m246.16,81.15c2.91,0,4.2,1.3,4.2,4.2v31.71c0,.87.49,1.36,1.36,1.36h2.41v6.62h-7.42c-2.97,0-4.2-1.24-4.2-4.2v-31.65c0-.93-.49-1.36-1.36-1.36h-5.25c-2.23,0-6.06.37-6.06,4.95v.74h6.74v6.24h-6.74v25.28h-7.85v-25.28h-3.89v-6.24h3.89v-.93c0-10.32,8.47-11.44,12.86-11.44h11.31Z"/><path class="cls-1" d="m263.16,131.41c2.16,0,4.08-1.3,5.19-4.02l1.05-2.41-10.51-23.68c-.37-.93-.8-1.11-1.67-1.11h-.93v-6.68h5.19c2.23,0,3.34.8,4.14,2.97l6.18,15.76c.62,1.61,1.11,4.2,1.11,4.2h.12s.49-2.6,1.05-4.2l5.38-15.76c.74-2.16,2.04-2.97,4.2-2.97h5.32v6.68h-.93c-.93,0-1.42.19-1.79,1.11l-11.31,28.5c-2.23,5.69-6.68,8.22-11.38,8.22-4.95,0-7.97-3.21-7.97-3.21l3.03-5.56s1.92,2.16,4.51,2.16Z"/></g><g><path class="cls-1" d="m129.61,40.71l-.54,2.59h-2.47l3.42-13.33h2.32l3.4,13.33h-2.47l-.54-2.59h-3.11Zm1.56-7.53l-1.12,5.41h2.24l-1.12-5.41Z"/><path class="cls-1" d="m138.66,40.75v2.55h-2.26v-2.55h2.26Z"/><path class="cls-1" d="m139.59,39.49h2.24c.03.66.16,1.14.4,1.45.24.31.59.46,1.05.46s.8-.14,1.01-.42c.21-.28.32-.73.32-1.35,0-.52-.12-.92-.36-1.23-.24-.3-.64-.58-1.21-.84l-.91-.41c-.86-.39-1.48-.86-1.86-1.43s-.57-1.33-.57-2.28c0-1.12.32-2.02.97-2.69s1.53-1,2.64-1,1.94.33,2.54,1,.92,1.62.96,2.87h-2.18c-.01-.61-.12-1.06-.32-1.36-.2-.3-.53-.45-.99-.45-.86,0-1.29.51-1.29,1.53,0,.46.11.83.32,1.11.21.28.57.53,1.07.74l.87.39c.93.41,1.6.93,2.02,1.54.42.62.63,1.44.63,2.47,0,1.24-.32,2.19-.97,2.86-.64.67-1.56,1-2.74,1s-2.07-.34-2.69-1.02-.93-1.66-.95-2.94Z"/><path class="cls-1" d="m150.27,40.75v2.55h-2.26v-2.55h2.26Z"/><path class="cls-1" d="m155.33,29.97c1.12,0,2.02.32,2.7.97.68.64,1.01,1.6,1.01,2.86v5.68c0,1.25-.35,2.2-1.06,2.85s-1.63.98-2.76.98h-3.57v-13.33h3.69Zm.98,10.68c.24-.35.36-.83.36-1.45v-5c0-.68-.12-1.2-.35-1.55-.23-.35-.58-.53-1.04-.53h-1.28v9.06h1.28c.45,0,.79-.17,1.03-.52Z"/><path class="cls-1" d="m162.59,40.75v2.55h-2.26v-2.55h2.26Z"/></g><g><path class="cls-2" d="m161.32,128.4c3.13,13.87,1.3,25.5-3.66,31.64-9.07,11.24-22.19.12-36.87-9.68-.37-.25-.74-.5-1.12-.74-.1-.07-.2-.13-.3-.2h0c-1.57-1-3.2-1.93-4.9-2.75-5.17-2.62-12.04-2.95-12.23,5.02.02,3.32.62,6.62,1.67,9.72.15.44.6.66,1.01.52.42-.15.64-.62.52-1.07-3.81-13.64.11-20.45,17.35-4.96,6.11,5.43,11.41,12.27,18.97,15.51,14.69,6.47,25.94-3.62,27.61-19.45.73-8.62-.32-17.07-2.64-25.2-1.7.77-3.52,1.33-5.43,1.64Z"/><path class="cls-2" d="m152.24,105.55c2.06,3.6,3.79,7.17,5.22,10.67.13,0,.26.02.4.02,1.68,0,3.21-.68,4.37-1.79-1.85-4.11-3.97-8.1-6.31-11.97-1.55.51-2.85,1.61-3.68,3.06Z"/><path class="cls-2" d="m262.03,8.26c-4.44-9.36-14.81-10.71-30.89-4.09h-.05s-.06.04-.06.04c-3.41,1.41-7.06,3.17-10.98,5.29-22.35,12.13-48.61,33.21-66,47.17l-3.03,2.43c-3.39.61-5.68.99-6.51,1.12-.83-.13-3.11-.51-6.51-1.12l-3.03-2.43c-17.38-13.95-43.64-35.04-66-47.17-3.93-2.13-7.6-3.9-11.02-5.32h-.02s-.02-.01-.02-.01C52.4,1.89,47.57.53,43.46.13c-8-.78-13.54,1.95-16.47,8.13-1.96,4.12-1.98,8.28-.06,12.35,10.66,22.66,79.75,37.57,109.28,42.98,1.62,1.3,3.13,2.5,4.52,3.6-1.17.87-2.09,1.52-2.77,1.95l-.03-.06-1,.6c-1.3.78-3.13,1.66-5.32,2.55-10.99-9.43-24.63-11.43-34.2-11.43-6.79,0-13.78,1.06-19.68,3-5.82,1.91-10.11,4.49-12.06,7.28-2.19,3.12-1.71,6.3,1.31,8.73,7.55,6.06,20.5,6.32,30.03,5.48,12.63-1.12,25.47-4.62,33.55-7.62,4.96,5.16,9.76,10.7,14.14,16.59,1.22-.97,2.57-1.78,4.01-2.46-4-5.4-8.31-10.47-12.67-15.12-.26-.3-.52-.61-.79-.91,1.33-.6,2.49-1.18,3.46-1.73,1.08-.48,2.89-1.7,5.79-3.9,2.9,2.2,4.71,3.42,5.79,3.9.97.55,2.13,1.13,3.46,1.73-.88.96-1.71,1.97-2.5,3.02-.8,1.06-.6,2.62.43,3.43.01,0,.02.02.04.03.97.76,2.32.57,3.07-.43,1.11-1.48,2.31-2.87,3.62-4.16,8.08,3,20.94,6.51,33.58,7.64,9.53.84,22.48.58,30.03-5.48,3.02-2.42,3.5-5.6,1.31-8.73-1.96-2.79-6.24-5.38-12.06-7.28-5.9-1.93-12.89-3-19.68-3-9.57,0-23.21,2-34.2,11.43-2.19-.9-4.02-1.77-5.32-2.55l-1.01-.57-.02.03c-.84-.53-1.91-1.3-2.77-1.94,1.39-1.1,2.91-2.3,4.52-3.6,29.53-5.41,98.63-20.32,109.29-42.98,1.91-4.07,1.89-8.22-.06-12.35ZM69.59,42.24h0c-20.38-7.56-37.1-16.08-31.76-26.53,5.33-10.45,39.34,5.46,78.74,32.23,4.18,3.27,8.16,6.44,11.81,9.37-15.41-3.03-38.71-8.2-58.79-15.07Zm31.16,37.87c-17.87,1.84-23.76-1.36-25.08-5.5-1.32-4.15,16.93-11.83,38.17-6.73,4.27,1.31,8.61,3.3,12.64,6.26-8.06,2.76-17.29,4.89-25.72,5.97Zm74.43-12.23c21.24-5.1,39.49,2.57,38.17,6.73-1.32,4.14-7.21,7.34-25.08,5.5-8.44-1.08-17.67-3.21-25.72-5.97,4.03-2.96,8.37-4.94,12.64-6.26Zm44.26-25.65c-20.08,6.87-43.39,12.04-58.8,15.07,3.66-2.93,7.64-6.1,11.82-9.37C211.85,21.16,245.85,5.25,251.19,15.7c5.33,10.45-11.38,18.97-31.75,26.53Z"/></g></svg>